<svg width="71" height="71" viewBox="0 0 71 71" fill="none" xmlns="http://www.w3.org/2000/svg">
<path fill-rule="evenodd" clip-rule="evenodd" d="M50.402 16.8857C50.402 25.9353 43.7301 33.2714 35.5 33.2714C27.2698 33.2714 20.598 25.9353 20.598 16.8857C20.598 7.83614 27.2698 0.5 35.5 0.5C43.7301 0.5 50.402 7.83614 50.402 16.8857ZM45.4347 16.8857C45.4347 22.9188 40.9868 27.8095 35.5 27.8095C30.0132 27.8095 25.5653 22.9188 25.5653 16.8857C25.5653 10.8527 30.0132 5.96191 35.5 5.96191C40.9868 5.96191 45.4347 10.8527 45.4347 16.8857Z" fill="white"/>
<path d="M35.5 41.4643C19.4198 41.4643 5.71897 51.9195 0.5 66.5673C1.77138 67.9555 3.11068 69.2686 4.51194 70.5C8.39825 57.0517 20.5898 46.9262 35.5 46.9262C50.4102 46.9262 62.6018 57.0518 66.4881 70.5C67.8893 69.2686 69.2286 67.9555 70.5 66.5674C65.281 51.9195 51.5802 41.4643 35.5 41.4643Z" fill="white"/>
</svg>
